<svg width="68" height="68" viewBox="0 0 68 68" fill="none" xmlns="http://www.w3.org/2000/svg">
<rect x="0.5" y="0.5" width="51" height="51" stroke="#7D7D7D" stroke-dasharray="2 2"/>
<path d="M51.7947 49.2649L58.2857 51.4286L58.2857 51.4286C59.9192 51.9731 60.7359 52.2453 61.0612 52.5579C61.8802 53.3449 61.8802 54.6551 61.0612 55.4421C60.7359 55.7547 59.9192 56.0269 58.2857 56.5714L58.2857 56.5714C57.9566 56.6811 57.7921 56.736 57.6461 56.8132C57.2911 57.0009 57.0009 57.2911 56.8132 57.6461C56.736 57.7921 56.6811 57.9566 56.5714 58.2857C56.0269 59.9192 55.7547 60.7359 55.4421 61.0612C54.6551 61.8802 53.3449 61.8802 52.5579 61.0612C52.2453 60.7359 51.9731 59.9192 51.4286 58.2857L51.4286 58.2857L49.2649 51.7947C48.713 50.1389 48.437 49.311 48.874 48.874C49.311 48.437 50.1389 48.713 51.7947 49.2649Z" fill="#7D7D7D" stroke="#7D7D7D"/>
</svg>
